<?xml version="1.0" encoding="utf-8"?>
<!-- Generator: Adobe Illustrator 19.0.0, SVG Export Plug-In . SVG Version: 6.00 Build 0)  -->
<svg version="1.1" id="Слой_1" xmlns="http://www.w3.org/2000/svg" xmlns:xlink="http://www.w3.org/1999/xlink" x="0px" y="0px"
	 viewBox="0 0 157 32.2" enable-background="new 0 0 157 32.2" xml:space="preserve">
<g id="XMLID_802_">
	<g id="XMLID_780_">
		<polygon id="XMLID_397_" fill="#ED9921" points="43.7,8 33.2,32.2 31.5,32.2 20.9,8 26.4,8 32.4,22.4 38.3,8 		"/>
		<polygon id="XMLID_396_" fill="#ED9921" points="83,4.8 75.4,4.8 75.4,24.2 70.6,24.2 70.6,4.8 63,4.8 63,0.4 83,0.4 		"/>
		<path id="XMLID_393_" fill="#ED9921" d="M99.6,14.8c1.3-0.6,2.3-1.6,3.1-2.7c0.7-1.2,1.1-2.5,1.1-4c0-2.3-0.8-4.2-2.4-5.6
			c-1.6-1.4-3.7-2.1-6.2-2.1h-8.9v23.8h4.9v-8.4h3.6l6.2,8.4h5.5L99.6,14.8z M97.8,10.6c-0.6,0.6-1.5,0.9-2.6,0.9h-4.1V4.7h4.1
			c1.1,0,2,0.3,2.6,0.9c0.6,0.6,1,1.4,1,2.4C98.8,9.1,98.5,10,97.8,10.6z"/>
		<path id="XMLID_390_" fill="#ED9921" d="M128.9,3.5c-2.5-2.4-5.5-3.5-9-3.5c-3.5,0-6.5,1.2-8.9,3.5c-2.4,2.4-3.7,5.3-3.7,8.8
			s1.2,6.4,3.7,8.8c2.4,2.4,5.4,3.5,8.9,3.5c3.5,0,6.5-1.2,9-3.5c2.5-2.4,3.7-5.3,3.7-8.8S131.4,5.9,128.9,3.5z M125.5,17.9
			c-1.5,1.5-3.3,2.2-5.5,2.2c-2.2,0-4.1-0.7-5.5-2.2c-1.4-1.5-2.1-3.3-2.1-5.6c0-2.3,0.7-4.2,2.2-5.6c1.4-1.5,3.3-2.2,5.5-2.2
			c2.2,0,4,0.7,5.5,2.2c1.5,1.5,2.2,3.3,2.2,5.6S126.9,16.5,125.5,17.9z"/>
		<polygon id="XMLID_389_" fill="#ED9921" points="157,0.4 157,24.6 155.4,24.6 141.6,9.9 141.6,24.2 136.8,24.2 136.8,0 138.3,0 
			152.1,14.6 152.1,0.4 		"/>
	</g>
	<g id="XMLID_794_">
		<polygon id="XMLID_388_" fill="#DEDEDD" points="41.8,24.2 52.4,0 54,0 64.7,24.2 59.1,24.2 53.2,9.8 47.3,24.2 		"/>
		<polygon id="XMLID_387_" fill="#DEDEDD" points="0,24.2 10.6,0 12.2,0 22.8,24.2 17.3,24.2 11.4,9.8 5.5,24.2 		"/>
	</g>
</g>
</svg>
