<?xml version="1.0" encoding="utf-8"?>
<!-- Generator: Adobe Illustrator 19.0.0, SVG Export Plug-In . SVG Version: 6.00 Build 0)  -->
<svg version="1.1" id="Слой_1" xmlns="http://www.w3.org/2000/svg" xmlns:xlink="http://www.w3.org/1999/xlink" x="0px" y="0px"
	 viewBox="0 0 85.7 85.7" enable-background="new 0 0 85.7 85.7" xml:space="preserve">
<g id="XMLID_368_">
	<g id="XMLID_24_">
		<path id="XMLID_25_" fill="#DEDEDD" d="M42.9,5c20.9,0,37.9,17,37.9,37.9s-17,37.9-37.9,37.9S5,63.8,5,42.9S22,5,42.9,5 M42.9,0
			C19.2,0,0,19.2,0,42.9s19.2,42.9,42.9,42.9s42.9-19.2,42.9-42.9S66.6,0,42.9,0L42.9,0z"/>
	</g>
</g>
<polygon id="XMLID_367_" fill="#DEDEDD" points="16.7,39.6 24.6,21.6 25.8,21.6 33.8,39.6 29.7,39.6 25.2,28.9 20.8,39.6 "/>
<polygon id="XMLID_359_" fill="#ED9921" points="51.4,53.4 43.5,71.5 42.3,71.5 34.4,53.4 38.5,53.4 42.9,64.2 47.3,53.4 "/>
<polygon id="XMLID_358_" fill="#DEDEDD" points="52,39.6 59.9,21.6 61.1,21.6 69,39.6 64.9,39.6 60.5,28.9 56.1,39.6 "/>
</svg>
