<?xml version="1.0" encoding="utf-8"?>
<!-- Generator: Adobe Illustrator 19.0.0, SVG Export Plug-In . SVG Version: 6.00 Build 0)  -->
<svg version="1.1" id="Слой_1" xmlns="http://www.w3.org/2000/svg" xmlns:xlink="http://www.w3.org/1999/xlink" x="0px" y="0px"
	 viewBox="0 0 40.1 31.2" enable-background="new 0 0 40.1 31.2" xml:space="preserve">
<g id="XMLID_783_">
	<path id="XMLID_809_" fill="#FFFFFF" d="M20.1,9.7c-2.2,0-4.1,0.9-5.5,2.3c-1.4,1.4-2.3,3.4-2.3,5.5c0,2.2,0.9,4.1,2.3,5.5
		c1.4,1.4,3.4,2.3,5.5,2.3s4.1-0.9,5.5-2.3c1.4-1.4,2.3-3.4,2.3-5.5c0-2.2-0.9-4.2-2.3-5.6C24.2,10.5,22.2,9.7,20.1,9.7z M20.1,22.9
		c-3,0-5.4-2.4-5.4-5.4s2.4-5.4,5.4-5.4s5.4,2.4,5.4,5.4S23.1,22.9,20.1,22.9z"/>
	<path id="XMLID_786_" fill="#FFFFFF" d="M36.4,3.8h-7.7V2.6c0-1.5-1.2-2.6-2.6-2.6h-12c-1.5,0-2.6,1.2-2.6,2.6v1.2H3.7
		C1.7,3.8,0,5.4,0,7.5v20c0,2,1.7,3.7,3.7,3.7h32.8c2,0,3.7-1.7,3.7-3.7v-20C40.1,5.5,38.5,3.8,36.4,3.8z M27,24.4
		c-1.8,1.8-4.3,2.9-7,2.9s-5.2-1.1-7-2.9c-1.8-1.8-2.9-4.3-2.9-7s1.1-5.2,2.9-7c1.8-1.8,4.3-2.9,7-2.9s5.2,1.1,7,2.9
		c1.8,1.8,2.9,4.3,2.9,7S28.9,22.7,27,24.4z M34.4,11.5c-1.1,0-2-0.9-2-2s0.9-2,2-2c1.1,0,2,0.9,2,2S35.5,11.5,34.4,11.5z"/>
</g>
</svg>
