<?xml version="1.0" encoding="utf-8"?>
<!-- Generator: Adobe Illustrator 19.0.0, SVG Export Plug-In . SVG Version: 6.00 Build 0)  -->
<svg version="1.1" id="Слой_1" xmlns="http://www.w3.org/2000/svg" xmlns:xlink="http://www.w3.org/1999/xlink" x="0px" y="0px"
	 viewBox="0 0 27.8 36" enable-background="new 0 0 27.8 36" xml:space="preserve">
<g id="XMLID_738_">
	<path id="XMLID_742_" fill="none" stroke="#DEDEDD" stroke-miterlimit="10" d="M13.9,17.6c3.9,0,7-3.8,7-8.5c0-4.7-1-8.5-7-8.5
		s-7,3.8-7,8.5C6.9,13.8,10,17.6,13.9,17.6z"/>
	<path id="XMLID_741_" fill="none" stroke="#DEDEDD" stroke-miterlimit="10" d="M0.6,30.6C0.6,30.4,0.6,30.6,0.6,30.6L0.6,30.6z"/>
	<path id="XMLID_740_" fill="none" stroke="#DEDEDD" stroke-miterlimit="10" d="M27.1,30.9C27.1,30.8,27.1,30.3,27.1,30.9L27.1,30.9
		z"/>
	<path id="XMLID_739_" fill="none" stroke="#DEDEDD" stroke-miterlimit="10" d="M27.1,30.3c-0.1-8.2-1.2-10.5-9.4-12
		c0,0-1.2,1.5-3.8,1.5S10,18.3,10,18.3C1.9,19.7,0.8,22,0.6,30c0,0.7,0,1,0,1.5c0,0,2,3.9,13.3,3.9c11.3,0,13.3-3.9,13.3-3.9
		C27.1,31.2,27.1,30.8,27.1,30.3z"/>
</g>
</svg>
